<svg xmlns="http://www.w3.org/2000/svg" xmlns:xlink="http://www.w3.org/1999/xlink" width="500" zoomAndPan="magnify" viewBox="0 0 375 374.999991" height="500" preserveAspectRatio="xMidYMid meet" version="1.0"><defs><g/><clipPath id="7df6f71f3b"><rect x="0" width="284" y="0" height="117"/></clipPath></defs><g transform="matrix(1, 0, 0, 1, 48, 140)"><g clip-path="url(#7df6f71f3b)"><g fill="#000000" fill-opacity="1"><g transform="translate(13.839647, 96.034841)"><g><path d="M 14.46875 3.109375 C 12.007812 3.585938 9.644531 3.59375 7.375 3.125 C 5.101562 2.65625 3.164062 1.65625 1.5625 0.125 C -0.0390625 -1.394531 -1.09375 -3.425781 -1.59375 -5.96875 C -2.195312 -9.070312 -1.773438 -11.476562 -0.328125 -13.1875 C 1.109375 -14.90625 2.921875 -15.976562 5.109375 -16.40625 C 4.171875 -14.90625 3.546875 -13.328125 3.234375 -11.671875 C 2.929688 -10.023438 2.925781 -8.4375 3.21875 -6.90625 C 3.738281 -4.269531 5.035156 -2.242188 7.109375 -0.828125 C 9.179688 0.578125 11.835938 0.960938 15.078125 0.328125 C 17.140625 -0.078125 19.023438 -0.832031 20.734375 -1.9375 C 22.453125 -3.039062 23.757812 -4.429688 24.65625 -6.109375 C 25.5625 -7.796875 25.816406 -9.644531 25.421875 -11.65625 C 25.085938 -13.40625 24.347656 -14.863281 23.203125 -16.03125 C 22.054688 -17.195312 20.734375 -18.125 19.234375 -18.8125 C 17.742188 -19.5 15.773438 -20.285156 13.328125 -21.171875 C 10.835938 -22.046875 8.828125 -22.84375 7.296875 -23.5625 C 5.773438 -24.28125 4.414062 -25.25 3.21875 -26.46875 C 2.019531 -27.695312 1.238281 -29.234375 0.875 -31.078125 C 0.382812 -33.617188 0.660156 -36.410156 1.703125 -39.453125 C 2.742188 -42.492188 4.519531 -45.21875 7.03125 -47.625 C 9.539062 -50.03125 12.585938 -51.582031 16.171875 -52.28125 C 18.585938 -52.757812 20.457031 -52.515625 21.78125 -51.546875 C 23.101562 -50.578125 23.960938 -49.085938 24.359375 -47.078125 C 24.785156 -44.878906 24.738281 -42.316406 24.21875 -39.390625 C 23.707031 -36.460938 23.007812 -33.867188 22.125 -31.609375 C 20.625 -31.640625 19.722656 -32.441406 19.421875 -34.015625 C 19.253906 -34.847656 19.226562 -35.816406 19.34375 -36.921875 C 19.46875 -38.035156 19.679688 -39.445312 19.984375 -41.15625 C 20.304688 -42.988281 20.523438 -44.472656 20.640625 -45.609375 C 20.765625 -46.753906 20.75 -47.742188 20.59375 -48.578125 C 20.414062 -49.492188 20.003906 -50.140625 19.359375 -50.515625 C 18.722656 -50.890625 17.722656 -50.945312 16.359375 -50.6875 C 13.773438 -50.175781 11.53125 -48.90625 9.625 -46.875 C 7.726562 -44.84375 6.34375 -42.5625 5.46875 -40.03125 C 4.601562 -37.5 4.351562 -35.289062 4.71875 -33.40625 C 5 -32.007812 5.628906 -30.832031 6.609375 -29.875 C 7.585938 -28.925781 8.722656 -28.160156 10.015625 -27.578125 C 11.316406 -26.992188 13.0625 -26.347656 15.25 -25.640625 C 17.875 -24.742188 20.015625 -23.898438 21.671875 -23.109375 C 23.335938 -22.316406 24.84375 -21.195312 26.1875 -19.75 C 27.539062 -18.3125 28.429688 -16.476562 28.859375 -14.25 C 29.429688 -11.351562 29.078125 -8.6875 27.796875 -6.25 C 26.523438 -3.820312 24.6875 -1.789062 22.28125 -0.15625 C 19.875 1.46875 17.269531 2.554688 14.46875 3.109375 Z M 14.46875 3.109375 "/></g></g></g><g fill="#000000" fill-opacity="1"><g transform="translate(48.612523, 89.294758)"><g><path d="M 4.921875 1.328125 C 3.109375 1.640625 1.691406 1.316406 0.671875 0.359375 C -0.347656 -0.597656 -1.015625 -1.976562 -1.328125 -3.78125 C -1.640625 -5.59375 -1.585938 -7.546875 -1.171875 -9.640625 C -0.765625 -11.742188 -0.0859375 -13.554688 0.859375 -15.078125 C 1.816406 -16.609375 2.890625 -17.472656 4.078125 -17.671875 C 4.472656 -17.742188 4.957031 -17.722656 5.53125 -17.609375 C 5.070312 -17.066406 4.597656 -15.984375 4.109375 -14.359375 C 3.628906 -12.742188 3.257812 -11.039062 3 -9.25 C 2.75 -7.457031 2.710938 -6.035156 2.890625 -4.984375 C 3.316406 -2.472656 4.316406 -1.351562 5.890625 -1.625 C 6.816406 -1.78125 7.832031 -2.453125 8.9375 -3.640625 C 10.050781 -4.828125 11.085938 -6.316406 12.046875 -8.109375 C 10.640625 -8.910156 9.457031 -10.066406 8.5 -11.578125 C 7.539062 -13.085938 6.910156 -14.722656 6.609375 -16.484375 C 6.210938 -18.773438 6.457031 -20.832031 7.34375 -22.65625 C 8.226562 -24.488281 9.660156 -25.570312 11.640625 -25.90625 C 13.304688 -26.195312 14.554688 -25.953125 15.390625 -25.171875 C 16.234375 -24.390625 16.789062 -23.203125 17.0625 -21.609375 C 17.351562 -19.941406 17.269531 -17.988281 16.8125 -15.75 C 16.363281 -13.519531 15.644531 -11.3125 14.65625 -9.125 C 15.53125 -8.820312 16.410156 -8.742188 17.296875 -8.890625 C 18.566406 -9.109375 19.816406 -9.71875 21.046875 -10.71875 C 22.273438 -11.71875 23.101562 -13.09375 23.53125 -14.84375 L 24.4375 -14.328125 C 23.9375 -12.242188 22.992188 -10.609375 21.609375 -9.421875 C 20.222656 -8.234375 18.71875 -7.5 17.09375 -7.21875 C 15.90625 -7.019531 14.8125 -7.054688 13.8125 -7.328125 C 12.582031 -4.984375 11.1875 -3.019531 9.625 -1.4375 C 8.0625 0.132812 6.492188 1.054688 4.921875 1.328125 Z M 12.953125 -10.046875 C 13.796875 -11.953125 14.414062 -13.851562 14.8125 -15.75 C 15.207031 -17.65625 15.28125 -19.359375 15.03125 -20.859375 C 14.8125 -22.097656 14.460938 -22.992188 13.984375 -23.546875 C 13.503906 -24.097656 12.984375 -24.320312 12.421875 -24.21875 C 11.804688 -24.113281 11.226562 -23.707031 10.6875 -23 C 10.144531 -22.300781 9.753906 -21.394531 9.515625 -20.28125 C 9.285156 -19.175781 9.273438 -18.007812 9.484375 -16.78125 C 9.710938 -15.414062 10.125 -14.140625 10.71875 -12.953125 C 11.3125 -11.765625 12.054688 -10.796875 12.953125 -10.046875 Z M 12.953125 -10.046875 "/></g></g></g><g fill="#000000" fill-opacity="1"><g transform="translate(72.346992, 85.220415)"><g><path d="M 7.65625 2.609375 C 5.445312 2.953125 3.546875 2.5 1.953125 1.25 C 0.359375 0.0078125 -0.644531 -1.976562 -1.0625 -4.71875 C -1.5 -7.582031 -1.203125 -10.492188 -0.171875 -13.453125 C 0.859375 -16.410156 2.378906 -18.910156 4.390625 -20.953125 C 6.398438 -23.003906 8.503906 -24.203125 10.703125 -24.546875 C 12.378906 -24.804688 13.65625 -24.515625 14.53125 -23.671875 C 15.40625 -22.835938 15.953125 -21.738281 16.171875 -20.375 C 16.367188 -19.050781 16.242188 -17.867188 15.796875 -16.828125 C 15.347656 -15.785156 14.613281 -15.179688 13.59375 -15.015625 C 12.84375 -14.898438 12.15625 -15.144531 11.53125 -15.75 C 12.144531 -16.144531 12.609375 -16.921875 12.921875 -18.078125 C 13.242188 -19.242188 13.328125 -20.332031 13.171875 -21.34375 C 13.078125 -21.914062 12.898438 -22.3125 12.640625 -22.53125 C 12.378906 -22.757812 11.988281 -22.832031 11.46875 -22.75 C 9.96875 -22.519531 8.503906 -21.382812 7.078125 -19.34375 C 5.648438 -17.300781 4.546875 -14.90625 3.765625 -12.15625 C 2.992188 -9.414062 2.769531 -6.992188 3.09375 -4.890625 C 3.34375 -3.296875 3.921875 -2.035156 4.828125 -1.109375 C 5.742188 -0.191406 7.0625 0.128906 8.78125 -0.140625 C 11.46875 -0.554688 13.953125 -2.066406 16.234375 -4.671875 C 18.523438 -7.273438 20.101562 -10.472656 20.96875 -14.265625 L 21.921875 -13.75 C 21.316406 -10.945312 20.289062 -8.359375 18.84375 -5.984375 C 17.40625 -3.617188 15.707031 -1.675781 13.75 -0.15625 C 11.800781 1.363281 9.769531 2.285156 7.65625 2.609375 Z M 7.65625 2.609375 "/></g></g></g><g fill="#000000" fill-opacity="1"><g transform="translate(93.433978, 81.986552)"><g><path d="M 8.734375 -30.421875 C 7.941406 -30.304688 7.265625 -30.398438 6.703125 -30.703125 C 6.140625 -31.015625 5.804688 -31.523438 5.703125 -32.234375 C 5.585938 -33.109375 6.007812 -33.972656 6.96875 -34.828125 C 7.9375 -35.691406 8.972656 -36.203125 10.078125 -36.359375 C 11.523438 -36.554688 12.34375 -35.972656 12.53125 -34.609375 C 12.644531 -33.765625 12.304688 -32.890625 11.515625 -31.984375 C 10.722656 -31.085938 9.796875 -30.566406 8.734375 -30.421875 Z M 5.015625 1.046875 C 3.378906 1.273438 2.046875 0.929688 1.015625 0.015625 C -0.00390625 -0.890625 -0.628906 -2.164062 -0.859375 -3.8125 C -1.109375 -5.53125 -0.945312 -7.984375 -0.375 -11.171875 C 0.1875 -14.359375 1.046875 -17.203125 2.203125 -19.703125 C 3.367188 -22.210938 4.660156 -23.566406 6.078125 -23.765625 C 6.472656 -23.828125 6.832031 -23.742188 7.15625 -23.515625 C 7.476562 -23.285156 7.671875 -22.945312 7.734375 -22.5 C 7.816406 -21.882812 7.320312 -20.304688 6.25 -17.765625 C 5.113281 -15.140625 4.25 -12.804688 3.65625 -10.765625 C 3.070312 -8.722656 2.898438 -6.835938 3.140625 -5.109375 C 3.359375 -3.566406 3.757812 -2.550781 4.34375 -2.0625 C 4.9375 -1.582031 5.804688 -1.425781 6.953125 -1.59375 C 10.390625 -2.070312 13.316406 -5.921875 15.734375 -13.140625 L 16.4375 -12.5625 C 15.71875 -8.675781 14.296875 -5.523438 12.171875 -3.109375 C 10.054688 -0.703125 7.671875 0.679688 5.015625 1.046875 Z M 5.015625 1.046875 "/></g></g></g><g fill="#000000" fill-opacity="1"><g transform="translate(109.06037, 79.744858)"><g><path d="M 3.5625 2.734375 C 2.101562 2.910156 0.863281 2.578125 -0.15625 1.734375 C -1.175781 0.890625 -1.796875 -0.414062 -2.015625 -2.1875 C -2.328125 -4.800781 -1.738281 -7.835938 -0.25 -11.296875 C 1.226562 -14.765625 3.269531 -17.800781 5.875 -20.40625 C 8.476562 -23.019531 11.15625 -24.5 13.90625 -24.84375 C 15.632812 -25.050781 17.125 -24.757812 18.375 -23.96875 C 19.632812 -23.175781 20.359375 -22.050781 20.546875 -20.59375 C 20.671875 -19.570312 20.472656 -18.800781 19.953125 -18.28125 C 19.429688 -17.769531 18.664062 -17.453125 17.65625 -17.328125 C 17.78125 -18.148438 17.796875 -18.941406 17.703125 -19.703125 C 17.566406 -20.804688 17.1875 -21.664062 16.5625 -22.28125 C 15.945312 -22.90625 15.085938 -23.148438 13.984375 -23.015625 C 12.035156 -22.785156 10.117188 -21.453125 8.234375 -19.015625 C 6.359375 -16.578125 4.878906 -13.757812 3.796875 -10.5625 C 2.722656 -7.375 2.320312 -4.695312 2.59375 -2.53125 C 2.800781 -0.800781 3.503906 -0.0078125 4.703125 -0.15625 C 6.472656 -0.375 8.378906 -2.035156 10.421875 -5.140625 C 12.472656 -8.242188 14.628906 -11.984375 16.890625 -16.359375 C 17.484375 -16.335938 18.09375 -16.21875 18.71875 -16 C 19.351562 -15.789062 19.695312 -15.460938 19.75 -15.015625 C 19.789062 -14.660156 19.644531 -14.070312 19.3125 -13.25 C 18.988281 -12.425781 18.796875 -11.941406 18.734375 -11.796875 C 18.128906 -10.421875 17.664062 -9.207031 17.34375 -8.15625 C 17.03125 -7.101562 16.925781 -6.15625 17.03125 -5.3125 C 17.125 -4.5625 17.394531 -3.910156 17.84375 -3.359375 C 18.289062 -2.804688 18.890625 -2.578125 19.640625 -2.671875 C 20.929688 -2.828125 22.4375 -3.941406 24.15625 -6.015625 C 25.882812 -8.097656 27.5 -10.914062 29 -14.46875 L 29.734375 -13.875 C 29.097656 -11.414062 28.160156 -9.175781 26.921875 -7.15625 C 25.679688 -5.144531 24.28125 -3.523438 22.71875 -2.296875 C 21.15625 -1.066406 19.601562 -0.359375 18.0625 -0.171875 C 16.507812 0.015625 15.265625 -0.296875 14.328125 -1.109375 C 13.398438 -1.921875 12.859375 -2.96875 12.703125 -4.25 C 12.628906 -4.820312 12.617188 -5.476562 12.671875 -6.21875 C 10.992188 -3.3125 9.441406 -1.140625 8.015625 0.296875 C 6.597656 1.734375 5.113281 2.546875 3.5625 2.734375 Z M 3.5625 2.734375 "/></g></g></g><g fill="#000000" fill-opacity="1"><g transform="translate(137.696566, 76.298213)"><g><path d="M 5.734375 1.421875 C 3.910156 1.609375 2.5 1.128906 1.5 -0.015625 C 0.507812 -1.160156 -0.09375 -2.78125 -0.3125 -4.875 C -0.726562 -8.863281 0.078125 -14.4375 2.109375 -21.59375 C 4.140625 -28.75 6.5625 -35.253906 9.375 -41.109375 C 12.195312 -46.960938 14.363281 -49.972656 15.875 -50.140625 C 16.488281 -50.203125 17.066406 -49.707031 17.609375 -48.65625 C 18.148438 -47.613281 18.476562 -46.539062 18.59375 -45.4375 C 18.800781 -43.394531 18.285156 -40.300781 17.046875 -36.15625 C 15.804688 -32.007812 14.039062 -27.75 11.75 -23.375 C 9.46875 -19.007812 6.925781 -15.398438 4.125 -12.546875 C 3.8125 -9.910156 3.757812 -7.640625 3.96875 -5.734375 C 4.320312 -2.316406 5.476562 -0.710938 7.4375 -0.921875 C 9.082031 -1.097656 10.648438 -2.316406 12.140625 -4.578125 C 13.628906 -6.835938 14.882812 -9.503906 15.90625 -12.578125 L 16.96875 -12.140625 C 14.007812 -3.578125 10.265625 0.941406 5.734375 1.421875 Z M 4.5 -14.875 C 6.6875 -17.582031 8.75 -20.910156 10.6875 -24.859375 C 12.625 -28.804688 14.144531 -32.550781 15.25 -36.09375 C 16.363281 -39.644531 16.84375 -42.175781 16.6875 -43.6875 C 16.613281 -44.394531 16.421875 -44.734375 16.109375 -44.703125 C 15.484375 -44.640625 14.363281 -42.984375 12.75 -39.734375 C 11.132812 -36.492188 9.535156 -32.570312 7.953125 -27.96875 C 6.378906 -23.363281 5.226562 -19 4.5 -14.875 Z M 4.5 -14.875 "/></g></g></g><g fill="#000000" fill-opacity="1"><g transform="translate(153.15495, 74.667535)"><g/></g></g><g fill="#000000" fill-opacity="1"><g transform="translate(169.946134, 72.890479)"><g><path d="M 1.078125 1.015625 C 1.804688 -0.878906 3.785156 -6.113281 7.015625 -14.6875 C 10.242188 -23.269531 13.675781 -32.535156 17.3125 -42.484375 C 17.6875 -43.535156 17.847656 -44.460938 17.796875 -45.265625 C 17.753906 -45.847656 17.566406 -46.273438 17.234375 -46.546875 C 16.898438 -46.816406 16.289062 -46.921875 15.40625 -46.859375 C 13.625 -46.742188 12.148438 -46.03125 10.984375 -44.71875 C 9.816406 -43.40625 8.984375 -41.789062 8.484375 -39.875 C 7.992188 -37.96875 7.8125 -36.054688 7.9375 -34.140625 C 7.96875 -33.554688 8.0625 -32.875 8.21875 -32.09375 C 7.050781 -32.007812 6.128906 -32.523438 5.453125 -33.640625 C 4.773438 -34.765625 4.390625 -35.992188 4.296875 -37.328125 C 4.171875 -39.191406 4.71875 -41.039062 5.9375 -42.875 C 7.15625 -44.707031 8.742188 -46.222656 10.703125 -47.421875 C 12.671875 -48.617188 14.628906 -49.28125 16.578125 -49.40625 C 18.140625 -49.507812 19.425781 -49.171875 20.4375 -48.390625 C 21.445312 -47.609375 22.28125 -46.144531 22.9375 -44 C 23.59375 -41.851562 24.050781 -38.816406 24.3125 -34.890625 C 24.550781 -31.285156 24.644531 -25.859375 24.59375 -18.609375 C 24.550781 -15.160156 24.570312 -11.785156 24.65625 -8.484375 C 25.789062 -14.410156 28.171875 -21.253906 31.796875 -29.015625 C 35.421875 -36.773438 38.554688 -42.914062 41.203125 -47.4375 C 41.847656 -48.550781 42.363281 -49.304688 42.75 -49.703125 C 43.144531 -50.109375 43.679688 -50.332031 44.359375 -50.375 C 44.984375 -50.414062 45.707031 -50.3125 46.53125 -50.0625 C 45.59375 -47.3125 44.796875 -44.128906 44.140625 -40.515625 C 43.023438 -34.523438 42.082031 -27.664062 41.3125 -19.9375 C 40.550781 -12.21875 40.300781 -6.359375 40.5625 -2.359375 C 40.632812 -1.285156 40.734375 -0.484375 40.859375 0.046875 C 40.984375 0.578125 41.179688 1.140625 41.453125 1.734375 L 41.9375 3.046875 C 40.425781 3.148438 39.265625 2.984375 38.453125 2.546875 C 37.640625 2.109375 37.050781 1.382812 36.6875 0.375 C 36.332031 -0.625 36.09375 -2.101562 35.96875 -4.0625 C 35.65625 -8.832031 35.875 -13.945312 36.625 -19.40625 C 37.375 -24.863281 38.582031 -31.90625 40.25 -40.53125 C 38.457031 -37.84375 36.515625 -34.050781 34.421875 -29.15625 C 32.335938 -24.257812 30.425781 -19.269531 28.6875 -14.1875 C 26.945312 -9.101562 25.660156 -4.992188 24.828125 -1.859375 C 24.359375 -1.640625 24.035156 -1.523438 23.859375 -1.515625 C 22.742188 -1.441406 21.929688 -2.046875 21.421875 -3.328125 C 20.910156 -4.617188 20.5625 -6.664062 20.375 -9.46875 C 20.207031 -11.957031 20.0625 -16.78125 19.9375 -23.9375 C 19.84375 -30.988281 19.71875 -35.65625 19.5625 -37.9375 C 19.476562 -39.1875 19.347656 -40.429688 19.171875 -41.671875 C 16.472656 -34.015625 14.148438 -27.238281 12.203125 -21.34375 C 9.617188 -13.75 7.679688 -8.226562 6.390625 -4.78125 C 5.097656 -1.34375 3.882812 1.269531 2.75 3.0625 C 1.625 4.863281 0.457031 5.804688 -0.75 5.890625 Z M 1.078125 1.015625 "/></g></g></g><g fill="#000000" fill-opacity="1"><g transform="translate(220.309244, 69.703227)"><g><path d="M 3.328125 3.03125 C 1.847656 3.082031 0.640625 2.644531 -0.296875 1.71875 C -1.242188 0.789062 -1.753906 -0.5625 -1.828125 -2.34375 C -1.921875 -4.976562 -1.078125 -7.957031 0.703125 -11.28125 C 2.484375 -14.601562 4.78125 -17.453125 7.59375 -19.828125 C 10.40625 -22.210938 13.195312 -23.457031 15.96875 -23.5625 C 17.707031 -23.625 19.171875 -23.207031 20.359375 -22.3125 C 21.554688 -21.414062 22.179688 -20.226562 22.234375 -18.75 C 22.265625 -17.726562 22 -16.984375 21.4375 -16.515625 C 20.875 -16.046875 20.082031 -15.789062 19.0625 -15.75 C 19.257812 -16.5625 19.34375 -17.347656 19.3125 -18.109375 C 19.269531 -19.222656 18.96875 -20.113281 18.40625 -20.78125 C 17.84375 -21.457031 17.003906 -21.773438 15.890625 -21.734375 C 13.921875 -21.671875 11.894531 -20.503906 9.8125 -18.234375 C 7.738281 -15.972656 6.03125 -13.300781 4.6875 -10.21875 C 3.34375 -7.132812 2.710938 -4.5 2.796875 -2.3125 C 2.859375 -0.570312 3.492188 0.273438 4.703125 0.234375 C 6.484375 0.171875 8.523438 -1.316406 10.828125 -4.234375 C 13.128906 -7.160156 15.59375 -10.695312 18.21875 -14.84375 C 18.8125 -14.78125 19.410156 -14.613281 20.015625 -14.34375 C 20.628906 -14.070312 20.941406 -13.710938 20.953125 -13.265625 C 20.960938 -12.910156 20.769531 -12.335938 20.375 -11.546875 C 19.988281 -10.753906 19.75 -10.289062 19.65625 -10.15625 C 18.945312 -8.832031 18.390625 -7.660156 17.984375 -6.640625 C 17.578125 -5.617188 17.390625 -4.6875 17.421875 -3.84375 C 17.441406 -3.082031 17.648438 -2.40625 18.046875 -1.8125 C 18.453125 -1.226562 19.03125 -0.953125 19.78125 -0.984375 C 21.082031 -1.023438 22.679688 -2.007812 24.578125 -3.9375 C 26.484375 -5.863281 28.332031 -8.53125 30.125 -11.9375 L 30.828125 -11.296875 C 29.972656 -8.898438 28.84375 -6.75 27.4375 -4.84375 C 26.03125 -2.9375 24.492188 -1.4375 22.828125 -0.34375 C 21.171875 0.738281 19.5625 1.3125 18 1.375 C 16.4375 1.425781 15.222656 1.007812 14.359375 0.125 C 13.503906 -0.757812 13.054688 -1.847656 13.015625 -3.140625 C 12.992188 -3.722656 13.035156 -4.378906 13.140625 -5.109375 C 11.242188 -2.359375 9.523438 -0.332031 7.984375 0.96875 C 6.441406 2.28125 4.890625 2.96875 3.328125 3.03125 Z M 3.328125 3.03125 "/></g></g></g><g fill="#000000" fill-opacity="1"><g transform="translate(249.054612, 68.679132)"><g><path d="M -3.9375 18.8125 C -4.289062 18.820312 -4.625 18.644531 -4.9375 18.28125 C -5.257812 17.925781 -5.535156 17.53125 -5.765625 17.09375 C -5.992188 16.65625 -6.085938 16.390625 -6.046875 16.296875 C -5.453125 14.140625 -4.726562 11.765625 -3.875 9.171875 C -2.9375 6.296875 -2.148438 3.671875 -1.515625 1.296875 C -0.878906 -1.078125 -0.226562 -4.289062 0.4375 -8.34375 C 1.113281 -12.394531 1.785156 -17.570312 2.453125 -23.875 C 2.484375 -24.320312 2.578125 -24.625 2.734375 -24.78125 C 2.890625 -24.9375 3.210938 -25.019531 3.703125 -25.03125 C 4.773438 -25.039062 5.582031 -24.75 6.125 -24.15625 C 6.675781 -23.570312 6.957031 -22.851562 6.96875 -22 C 6.988281 -20.75 6.523438 -17.734375 5.578125 -12.953125 C 6.910156 -15.648438 8.554688 -17.984375 10.515625 -19.953125 C 12.472656 -21.921875 14.632812 -22.925781 17 -22.96875 C 18.957031 -23 20.582031 -22.316406 21.875 -20.921875 C 23.175781 -19.535156 23.84375 -17.703125 23.875 -15.421875 C 23.914062 -13.054688 23.265625 -10.535156 21.921875 -7.859375 C 20.578125 -5.179688 18.703125 -2.941406 16.296875 -1.140625 C 13.890625 0.648438 11.234375 1.566406 8.328125 1.609375 C 7.210938 1.628906 6.285156 1.519531 5.546875 1.28125 C 4.804688 1.050781 4.4375 0.78125 4.4375 0.46875 C 4.425781 0.332031 4.585938 0.238281 4.921875 0.1875 C 5.253906 0.144531 5.644531 0.117188 6.09375 0.109375 C 8.414062 0.078125 10.613281 -0.6875 12.6875 -2.1875 C 14.769531 -3.695312 16.4375 -5.597656 17.6875 -7.890625 C 18.945312 -10.191406 19.5625 -12.484375 19.53125 -14.765625 C 19.507812 -16.273438 19.164062 -17.503906 18.5 -18.453125 C 17.84375 -19.410156 16.890625 -19.878906 15.640625 -19.859375 C 14.210938 -19.835938 12.757812 -19.222656 11.28125 -18.015625 C 9.800781 -16.804688 8.484375 -15.359375 7.328125 -13.671875 C 6.171875 -11.984375 5.289062 -10.398438 4.6875 -8.921875 C 3.144531 -1.835938 1.640625 4.3125 0.171875 9.53125 C -1.285156 14.757812 -2.390625 17.734375 -3.140625 18.453125 C -3.359375 18.691406 -3.625 18.8125 -3.9375 18.8125 Z M -3.9375 18.8125 "/></g></g></g></g></g></svg>